HIERARCHY
ROOT Hip
{
	OFFSET	0.0000	0.0000	0.0000
	CHANNELS 6 Xposition Yposition Zposition Xrotation Yrotation Zrotation
	JOINT LowerSpine
	{
		OFFSET	0.0000	10.2468	-5.5450
		CHANNELS 3 Xrotation Yrotation Zrotation
		JOINT MiddleSpine
		{
			OFFSET	0.0000	9.3510	0.4885
			CHANNELS 3 Xrotation Yrotation Zrotation
			JOINT Chest
			{
				OFFSET	0.0000	11.5708	-2.5755
				CHANNELS 3 Xrotation Yrotation Zrotation
				JOINT Neck
				{
					OFFSET	0.0000	26.0744	-0.5423
					CHANNELS 3 Xrotation Yrotation Zrotation
					JOINT Head
					{
						OFFSET	-0.0001	14.7245	4.0051
						CHANNELS 3 Xrotation Yrotation Zrotation
						End Site
						{
							OFFSET	0.0001	20.5738	0.6142
						}
					}
				}
				JOINT LClavicle
				{
					OFFSET	2.6325	25.1631	8.6210
					CHANNELS 3 Xrotation Yrotation Zrotation
					JOINT LShoulder
					{
						OFFSET	15.3790	3.6093	-5.8402
						CHANNELS 3 Xrotation Yrotation Zrotation
						JOINT LForearm
						{
							OFFSET	32.6679	-0.1158	-0.2831
							CHANNELS 3 Xrotation Yrotation Zrotation
							JOINT LHand
							{
								OFFSET	27.2520	0.0790	-0.1633
								CHANNELS 3 Xrotation Yrotation Zrotation
								JOINT LFinger1
								{
									OFFSET	10.5621	0.9237	2.9336
									CHANNELS 3 Xrotation Yrotation Zrotation
									JOINT LFinger11
									{
										OFFSET	3.9508	-0.9634	0.6961
										CHANNELS 3 Xrotation Yrotation Zrotation
										JOINT LFinger12
										{
											OFFSET	2.6971	-0.6578	0.4754
											CHANNELS 3 Xrotation Yrotation Zrotation
											End Site
											{
												OFFSET	1.9192	-0.5729	0.3113
											}
										}
									}
								}
								JOINT LFinger2
								{
									OFFSET	10.7197	1.0667	0.2554
									CHANNELS 3 Xrotation Yrotation Zrotation
									JOINT LFinger21
									{
										OFFSET	4.8849	0.0136	-0.0289
										CHANNELS 3 Xrotation Yrotation Zrotation
										JOINT LFinger22
										{
											OFFSET	2.7077	0.0083	-0.0165
											CHANNELS 3 Xrotation Yrotation Zrotation
											End Site
											{
												OFFSET	2.4320	-0.1717	0.0033
											}
										}
									}
								}
								JOINT LFinger3
								{
									OFFSET	10.1592	0.7119	-2.4035
									CHANNELS 3 Xrotation Yrotation Zrotation
									JOINT LFinger31
									{
										OFFSET	4.4325	-0.2244	-0.2775
										CHANNELS 3 Xrotation Yrotation Zrotation
										JOINT LFinger32
										{
											OFFSET	2.5259	-0.1271	-0.1586
											CHANNELS 3 Xrotation Yrotation Zrotation
											End Site
											{
												OFFSET	2.2333	-0.2746	-0.1056
											}
										}
									}
								}
								JOINT LFinger4
								{
									OFFSET	9.4273	-0.7164	-4.1508
									CHANNELS 3 Xrotation Yrotation Zrotation
									JOINT LFinger41
									{
										OFFSET	2.7264	-0.5686	-0.7526
										CHANNELS 3 Xrotation Yrotation Zrotation
										JOINT LFinger42
										{
											OFFSET	1.9994	-0.4164	-0.5523
											CHANNELS 3 Xrotation Yrotation Zrotation
											End Site
											{
												OFFSET	1.7745	-0.4876	-0.4071
											}
										}
									}
								}
								JOINT LFinger0
								{
									OFFSET	2.1850	-1.6538	1.6564
									CHANNELS 3 Xrotation Yrotation Zrotation
									JOINT LFinger01
									{
										OFFSET	4.0680	-1.3359	3.0670
										CHANNELS 3 Xrotation Yrotation Zrotation
										JOINT LFinger02
										{
											OFFSET	2.6787	-0.9585	1.9299
											CHANNELS 3 Xrotation Yrotation Zrotation
											End Site
											{
												OFFSET	1.9698	-0.6781	1.3488
											}
										}
									}
								}
							}
						}
					}
				}
				JOINT RClavicle
				{
					OFFSET	-2.6324	25.1631	8.6210
					CHANNELS 3 Xrotation Yrotation Zrotation
					JOINT RShoulder
					{
						OFFSET	-15.3817	3.6099	-5.8412
						CHANNELS 3 Xrotation Yrotation Zrotation
						JOINT RForearm
						{
							OFFSET	-32.6679	-0.1158	-0.2831
							CHANNELS 3 Xrotation Yrotation Zrotation
							JOINT RHand
							{
								OFFSET	-27.2520	0.0791	-0.1632
								CHANNELS 3 Xrotation Yrotation Zrotation
								JOINT RFinger1
								{
									OFFSET	-10.5622	0.9238	2.9336
									CHANNELS 3 Xrotation Yrotation Zrotation
									JOINT RFinger11
									{
										OFFSET	-3.9508	-0.9634	0.6961
										CHANNELS 3 Xrotation Yrotation Zrotation
										JOINT RFinger12
										{
											OFFSET	-2.6970	-0.6580	0.4754
											CHANNELS 3 Xrotation Yrotation Zrotation
											End Site
											{
												OFFSET	-1.9192	-0.5729	0.3113
											}
										}
									}
								}
								JOINT RFinger2
								{
									OFFSET	-10.7197	1.0668	0.2554
									CHANNELS 3 Xrotation Yrotation Zrotation
									JOINT RFinger21
									{
										OFFSET	-4.8849	0.0136	-0.0289
										CHANNELS 3 Xrotation Yrotation Zrotation
										JOINT RFinger22
										{
											OFFSET	-2.7077	0.0083	-0.0166
											CHANNELS 3 Xrotation Yrotation Zrotation
											End Site
											{
												OFFSET	-2.4320	-0.1717	0.0033
											}
										}
									}
								}
								JOINT RFinger3
								{
									OFFSET	-10.1592	0.7119	-2.4035
									CHANNELS 3 Xrotation Yrotation Zrotation
									JOINT RFinger31
									{
										OFFSET	-4.4325	-0.2244	-0.2775
										CHANNELS 3 Xrotation Yrotation Zrotation
										JOINT RFinger32
										{
											OFFSET	-2.5259	-0.1271	-0.1587
											CHANNELS 3 Xrotation Yrotation Zrotation
											End Site
											{
												OFFSET	-2.2333	-0.2746	-0.1056
											}
										}
									}
								}
								JOINT RFinger4
								{
									OFFSET	-9.4273	-0.7164	-4.1508
									CHANNELS 3 Xrotation Yrotation Zrotation
									JOINT RFinger41
									{
										OFFSET	-2.7264	-0.5686	-0.7526
										CHANNELS 3 Xrotation Yrotation Zrotation
										JOINT RFinger42
										{
											OFFSET	-1.9993	-0.4162	-0.5523
											CHANNELS 3 Xrotation Yrotation Zrotation
											End Site
											{
												OFFSET	-1.7745	-0.4876	-0.4071
											}
										}
									}
								}
								JOINT RFinger0
								{
									OFFSET	-2.1850	-1.6536	1.6563
									CHANNELS 3 Xrotation Yrotation Zrotation
									JOINT RFinger01
									{
										OFFSET	-4.0679	-1.3361	3.0671
										CHANNELS 3 Xrotation Yrotation Zrotation
										JOINT RFinger02
										{
											OFFSET	-2.6786	-0.9584	1.9299
											CHANNELS 3 Xrotation Yrotation Zrotation
											End Site
											{
												OFFSET	-1.9698	-0.6781	1.3488
											}
										}
									}
								}
							}
						}
					}
				}
			}
		}
	}
	JOINT RThigh
	{
		OFFSET	-10.9616	4.6318	-0.9035
		CHANNELS 3 Xrotation Yrotation Zrotation
		JOINT RShin
		{
			OFFSET	-0.8771	-47.6778	0.0000
			CHANNELS 3 Xrotation Yrotation Zrotation
			JOINT RFoot
			{
				OFFSET	0.0000	-46.8167	0.0000
				CHANNELS 3 Xrotation Yrotation Zrotation
				JOINT RToe
				{
					OFFSET	0.0000	-5.1456	10.7601
					CHANNELS 3 Xrotation Yrotation Zrotation
					End Site
					{
						OFFSET	0.0000	0.0000	7.2185
					}
				}
			}
		}
	}
	JOINT LThigh
	{
		OFFSET	10.9614	4.6322	-0.9035
		CHANNELS 3 Xrotation Yrotation Zrotation
		JOINT LShin
		{
			OFFSET	0.8772	-47.6781	0.0000
			CHANNELS 3 Xrotation Yrotation Zrotation
			JOINT LFoot
			{
				OFFSET	0.0000	-46.8167	0.0000
				CHANNELS 3 Xrotation Yrotation Zrotation
				JOINT LToe
				{
					OFFSET	0.0000	-5.1456	10.7601
					CHANNELS 3 Xrotation Yrotation Zrotation
					End Site
					{
						OFFSET	0.0000	0.0000	7.2185
					}
				}
			}
		}
	}
}
MOTION
Frames:	4
Frame Time: 0.0333333000
	8.4204	98.2618	-89.5976	-6.911258	-5.764123	-0.337038	0.000000	0.000000	0.000000	0.968179	0.264936	0.370029	3.220676	0.907190	1.215843	0.000000	0.000000	0.000000	-2.388932	2.808840	-1.140805	0.000000	0.000000	-15.275460	31.689810	-45.087500	-47.280430	0.000000	-20.385770	0.000000	0.000000	0.000000	0.000000	0.000000	0.000000	0.000000	0.000000	0.000000	0.000000	0.000000	0.000000	0.000000	0.000000	0.000000	0.000000	0.000000	0.000000	0.000000	0.000000	0.000000	0.000000	0.000000	0.000000	0.000000	0.000000	0.000000	0.000000	0.000000	0.000000	0.000000	0.000000	0.000000	0.000000	0.000000	0.000000	0.000000	0.000000	0.000000	0.000000	0.000000	0.000000	0.000000	0.000000	0.000000	0.000000	0.000000	0.000000	0.000000	0.000000	0.000000	14.877440	18.497450	34.535700	52.669170	0.000000	20.626690	0.000000	-28.992390	5.415521	25.116100	0.000000	0.000000	0.000000	0.000000	0.000000	0.000000	0.000000	0.000000	0.000000	0.000000	0.000000	0.000000	0.000000	0.000000	0.000000	0.000000	0.000000	0.000000	0.000000	0.000000	0.000000	0.000000	0.000000	0.000000	0.000000	0.000000	0.000000	0.000000	0.000000	0.000000	0.000000	0.000000	0.000000	0.000000	0.000000	0.000000	0.000000	0.000000	0.000000	0.000000	0.000000	0.000000	0.000000	0.000000	0.000000	-1.321397	-0.719040	-1.969540	12.726050	0.000001	0.000000	-1.291048	0.905547	0.448480	0.000000	0.000000	0.000000	4.217550	0.609040	1.814547	8.628397	0.000001	0.000000	-2.666034	-0.141996	-0.072509	0.000000	0.000000	0.000000
	8.7138	98.3973	-89.5744	-6.972465	-6.114773	-0.145027	0.000000	0.000000	0.000000	0.977898	0.257118	0.411045	3.252542	0.883853	1.352638	0.000000	0.000000	0.000000	-2.319195	3.213363	-1.475454	0.000000	0.000000	-15.254200	33.436050	-46.794530	-45.525070	0.000000	-20.628080	0.000000	0.000000	0.000000	0.000000	0.000000	0.000000	0.000000	0.000000	0.000000	0.000000	0.000000	0.000000	0.000000	0.000000	0.000000	0.000000	0.000000	0.000000	0.000000	0.000000	0.000000	0.000000	0.000000	0.000000	0.000000	0.000000	0.000000	0.000000	0.000000	0.000000	0.000000	0.000000	0.000000	0.000000	0.000000	0.000000	0.000000	0.000000	0.000000	0.000000	0.000000	0.000000	0.000000	0.000000	0.000000	0.000000	0.000000	0.000000	0.000000	0.000000	0.000000	14.779250	13.404800	29.401290	54.621260	0.000000	20.384640	0.000000	-21.201220	5.535535	23.296410	0.000000	0.000000	0.000000	0.000000	0.000000	0.000000	0.000000	0.000000	0.000000	0.000000	0.000000	0.000000	0.000000	0.000000	0.000000	0.000000	0.000000	0.000000	0.000000	0.000000	0.000000	0.000000	0.000000	0.000000	0.000000	0.000000	0.000000	0.000000	0.000000	0.000000	0.000000	0.000000	0.000000	0.000000	0.000000	0.000000	0.000000	0.000000	0.000000	0.000000	0.000000	0.000000	0.000000	0.000000	0.000000	-1.349463	-0.787073	-2.297545	12.657060	0.000001	0.000000	-1.682222	0.620279	0.312633	0.000000	0.000000	0.000000	3.698802	0.792018	1.377539	10.154000	0.000001	0.000000	-3.072726	-0.075871	-0.041204	0.000000	0.000000	0.000000
	9.0566	98.5008	-89.6892	-6.756671	-5.717071	0.085812	0.000000	0.000000	0.000000	0.900338	0.289256	0.412393	2.993150	0.988948	1.356665	0.000000	0.000000	0.000000	-3.590282	3.278320	-1.656681	0.000000	0.000000	-15.277230	33.522500	-47.249420	-45.198680	0.000000	-20.747020	0.000000	0.000000	0.000000	0.000000	0.000000	0.000000	0.000000	0.000000	0.000000	0.000000	0.000000	0.000000	0.000000	0.000000	0.000000	0.000000	0.000000	0.000000	0.000000	0.000000	0.000000	0.000000	0.000000	0.000000	0.000000	0.000000	0.000000	0.000000	0.000000	0.000000	0.000000	0.000000	0.000000	0.000000	0.000000	0.000000	0.000000	0.000000	0.000000	0.000000	0.000000	0.000000	0.000000	0.000000	0.000000	0.000000	0.000000	0.000000	0.000000	0.000000	0.000000	14.667110	10.087070	25.288020	55.562840	0.000000	21.437420	0.000000	-17.566780	8.951942	21.616710	0.000000	0.000000	0.000000	0.000000	0.000000	0.000000	0.000000	0.000000	0.000000	0.000000	0.000000	0.000000	0.000000	0.000000	0.000000	0.000000	0.000000	0.000000	0.000000	0.000000	0.000000	0.000000	0.000000	0.000000	0.000000	0.000000	0.000000	0.000000	0.000000	0.000000	0.000000	0.000000	0.000000	0.000000	0.000000	0.000000	0.000000	0.000000	0.000000	0.000000	0.000000	0.000000	0.000000	0.000000	0.000000	-1.618728	-0.853634	-2.733009	12.536150	0.000001	0.000000	-1.740625	0.593586	0.295696	0.000000	0.000000	0.000000	2.669843	0.728460	1.112578	11.890900	0.000001	0.000000	-3.071877	-0.183686	-0.093809	0.000000	0.000000	0.000000
	9.3923	98.5083	-90.0103	-6.492023	-5.349803	0.246161	0.000000	0.000000	0.000000	0.893515	0.377866	0.381081	2.968912	1.282306	1.247225	0.000000	0.000000	0.000000	-5.340925	3.065572	-1.548123	0.000000	0.000000	-15.218670	33.012520	-46.878440	-45.274170	0.000000	-21.699260	0.000000	0.000000	0.000000	0.000000	0.000000	0.000000	0.000000	0.000000	0.000000	0.000000	0.000000	0.000000	0.000000	0.000000	0.000000	0.000000	0.000000	0.000000	0.000000	0.000000	0.000000	0.000000	0.000000	0.000000	0.000000	0.000000	0.000000	0.000000	0.000000	0.000000	0.000000	0.000000	0.000000	0.000000	0.000000	0.000000	0.000000	0.000000	0.000000	0.000000	0.000000	0.000000	0.000000	0.000000	0.000000	0.000000	0.000000	0.000000	0.000000	0.000000	0.000000	14.468570	8.123892	23.460250	55.504150	0.000000	24.840590	0.000000	-12.010930	12.646910	19.460390	0.000000	0.000000	0.000000	0.000000	0.000000	0.000000	0.000000	0.000000	0.000000	0.000000	0.000000	0.000000	0.000000	0.000000	0.000000	0.000000	0.000000	0.000000	0.000000	0.000000	0.000000	0.000000	0.000000	0.000000	0.000000	0.000000	0.000000	0.000000	0.000000	0.000000	0.000000	0.000000	0.000000	0.000000	0.000000	0.000000	0.000000	0.000000	0.000000	0.000000	0.000000	0.000000	0.000000	0.000000	0.000000	-2.356409	-1.303359	-3.089449	13.188550	0.000001	0.000000	-1.375133	0.520094	0.251422	0.000000	0.000000	0.000000	1.377529	0.651975	0.920516	13.510900	0.000001	0.000000	-2.631810	-0.108316	-0.053322	0.000000	0.000000	0.000000
